<?xml version="1.0" encoding="utf-8"?>
<svg xmlns="http://www.w3.org/2000/svg" viewBox="-217.464 -80.892 448.869 437.48">
  <g transform="matrix(0.030477, 0, 0, -0.030437, -142.342346, 368.944)" fill="#000000" stroke="none" style="">
    <path d="M 4128.47 14227.6 C 4034.11 14199.9 3951.87 14083.7 3951.87 13982.8 C 3951.87 13939.8 3973.64 13854.1 4000.25 13788.3 C 4055.88 13652 4075.24 13667.2 3746.24 13609.1 C 3279.34 13528.4 2814.85 13366.8 2306.82 13104.2 C 850.477 12349.3 -213.97 10978.5 -610.71 9342.46 C -734.09 8832.48 -772.8 8484.07 -775.22 7905.91 C -775.22 7332.81 -738.93 7007.14 -608.3 6464.34 C -354.28 5419.12 257.777 4353.69 1012.56 3651.81 C 1106.91 3563.45 1227.86 3449.87 1285.92 3394.32 L 1387.53 3295.89 L 1387.53 2912.14 C 1387.53 2700.02 1377.86 2513.24 1365.76 2495.59 C 1356.09 2475.34 1259.32 2434.95 1155.29 2404.63 L 964.174 2349.08 L 789.995 1995.65 C 565.013 1541.2 526.303 1427.61 565.013 1326.59 C 625.485 1175.1 615.815 1177.7 1571.39 1177.7 L 2447.13 1177.7 L 2510.03 1255.99 C 2570.51 1331.67 2572.93 1341.74 2577.76 1740.65 C 2582.61 1965.34 2585.03 2243.08 2585.03 2359.26 C 2585.03 2472.85 2589.86 2566.3 2592.29 2566.3 C 2597.12 2566.3 2764.04 2508.15 2962.42 2437.44 L 3322.88 2306.2 L 3322.88 1861.82 C 3322.88 1465.51 3327.72 1409.96 3371.26 1336.76 C 3470.44 1165.03 3407.55 1172.61 4767.13 1175.1 C 6136.39 1180.19 6095.25 1175.1 6182.35 1354.41 C 6218.64 1427.61 6225.9 1513.48 6225.9 1874.49 L 6225.9 2306.2 L 6547.65 2424.88 C 6721.83 2490.5 6886.33 2551.14 6908.1 2558.72 C 6944.39 2568.79 6949.23 2515.73 6956.49 1950.18 L 6963.75 1329.18 L 7043.58 1248.41 L 7123.41 1165.03 L 7987.06 1172.61 L 8850.73 1180.19 L 8923.31 1253.39 C 8974.05 1306.44 8993.49 1351.92 8993.49 1412.45 C 8993.49 1518.46 8620.89 2323.85 8555.57 2359.26 C 8531.37 2371.82 8449.13 2394.56 8371.71 2412.21 C 8161.24 2460.18 8161.24 2457.69 8161.24 2912.14 L 8161.24 3305.96 L 8274.94 3409.48 C 8751.52 3841.2 9107.14 4252.77 9397.43 4709.69 C 9946.63 5570.6 10234.4 6464.34 10316.8 7542.36 C 10372.4 8282.09 10253.9 9170.78 9999.85 9887.74 C 9898.18 10183.1 9649.05 10710.8 9484.56 10991 C 8799.89 12139.8 7701.6 13025.9 6431.53 13450.1 C 6199.28 13528.4 5681.58 13649.5 5584.81 13649.5 C 5500.14 13649.5 5492.88 13684.9 5548.52 13798.5 C 5606.58 13917.2 5609 14005.6 5560.62 14101.5 C 5492.88 14242.8 5420.31 14255.5 4781.64 14253 C 4464.73 14253 4172 14240.3 4128.47 14227.6 Z M 4634.07 12473.1 C 4643.75 12273.6 4677.61 12210.5 4774.38 12210.5 C 4871.15 12210.5 4905.02 12273.6 4914.7 12473.1 C 4921.96 12629.5 4931.64 12664.9 4965.5 12664.9 C 5033.24 12664.9 5613.84 12589.1 5710.61 12569 L 5802.53 12548.7 L 5809.8 10998.6 C 5812.21 9872.69 5821.89 9440.92 5843.66 9415.67 C 5887.21 9360.13 6015.42 9385.37 6049.3 9458.59 C 6073.48 9506.56 6080.74 9862.51 6080.74 10993.6 L 6080.74 12463 L 6148.48 12447.8 C 6213.8 12430.2 6496.84 12319.1 6620.23 12258.4 L 6685.54 12228.1 L 6685.54 7913.49 L 6685.54 3598.86 L 6559.74 3540.72 C 6167.84 3359.02 5596.91 3217.61 5096.14 3174.73 C 4433.28 3119.18 3584.15 3265.57 2996.28 3538.23 L 2870.49 3593.77 L 2858.39 5232.29 C 2851.13 6133.6 2848.71 7633.25 2853.56 8562.33 C 2858.39 9493.93 2863.23 10698.2 2863.23 11241 L 2863.23 12228.1 L 3008.39 12296.3 C 3158.37 12367 3412.38 12463 3448.67 12463 C 3458.35 12463 3468.03 11788.8 3468.03 10963.3 C 3468.03 9632.79 3472.86 9458.59 3506.74 9423.25 C 3550.27 9375.28 3676.07 9370.22 3702.69 9415.67 C 3712.36 9430.81 3726.88 10145.3 3734.13 10998.6 L 3746.24 12551.3 L 3915.58 12584.2 C 4121.21 12622.1 4387.32 12657.4 4522.8 12662.4 L 4624.4 12664.9 L 4634.07 12473.1 Z M 2572.93 7903.39 L 2572.93 3747.75 L 2483.43 3805.9 C 2321.34 3906.81 1992.33 4139.08 1977.82 4159.33 C 1970.56 4171.89 1965.71 5860.94 1965.71 7910.97 C 1968.13 10713.4 1975.39 11644.9 1997.16 11672.8 C 2033.45 11718.1 2519.71 12059 2551.16 12059 C 2563.26 12059 2572.93 10501.3 2572.93 7903.39 Z M 7118.58 11990.9 C 7179.05 11955.5 7309.69 11864.6 7406.45 11788.8 L 7580.63 11655.1 L 7580.63 7910.97 L 7580.63 4166.9 L 7515.32 4113.85 C 7408.88 4033.07 7089.54 3813.48 7031.48 3780.56 L 6975.84 3750.35 L 6975.84 7905.91 C 6975.84 10190.7 6983.1 12059 6992.78 12059 C 7000.04 12059 7058.1 12028.7 7118.58 11990.9 Z M 1692.35 7913.49 C 1697.19 5901.33 1692.35 4457.21 1680.25 4449.63 C 1656.06 4431.98 1341.57 4775.33 1181.9 4989.93 L 1073.03 5136.36 L 1073.03 7913.49 L 1073.03 10690.6 L 1177.06 10827 C 1331.89 11036.5 1636.7 11379.9 1660.9 11369.8 C 1670.58 11367.3 1685.09 9812.05 1692.35 7913.49 Z M 8091.08 11170.3 C 8190.27 11059.2 8316.07 10902.7 8374.13 10827 L 8475.74 10690.6 L 8475.74 7910.97 L 8475.74 5133.83 L 8296.71 4904.08 C 8124.95 4684.49 7873.35 4411.73 7868.52 4434.47 C 7866.1 4442.05 7861.26 6007.37 7856.43 7913.49 C 7849.17 10746.2 7854.01 11377.4 7880.61 11377.4 C 7897.55 11377.4 7991.9 11283.9 8091.08 11170.3 Z M 806.932 7898.35 C 804.51 5363.57 816.602 5512.53 656.938 5873.57 C 456.141 6330.52 354.536 6671.36 274.704 7183.86 C 228.747 7479.24 221.489 7587.81 233.582 8029.63 C 245.674 8607.77 291.642 8898.11 444.048 9382.85 C 545.653 9711.02 760.965 10216 789.995 10198.3 C 799.675 10193.3 806.932 9158.15 806.932 7898.35 Z M 8923.31 9867.6 C 9223.27 9153.11 9339.41 8524.46 9315.19 7756.96 C 9290.97 7009.66 9177.32 6537.55 8836.18 5754.9 C 8804.77 5681.69 8770.88 5621.09 8761.2 5621.09 C 8749.11 5621.09 8741.85 6658.73 8741.85 7926.11 C 8744.26 9913.08 8749.11 10221 8778.13 10180.6 C 8795.06 10155.4 8862.79 10014 8923.31 9867.6 Z" style="fill: rgb(139, 0, 0);"/>
    <path d="M 4309.91 11905 C 4273.62 11884.8 4266.36 11844.4 4266.36 11682.8 C 4266.36 11546.5 4276.03 11480.9 4297.8 11473.3 C 4312.32 11465.7 4539.72 11460.6 4798.58 11463.2 L 5270.31 11465.7 L 5277.57 11667.7 C 5282.42 11834.3 5277.57 11874.7 5243.71 11899.9 C 5190.48 11940.3 4372.8 11945.4 4309.91 11905 Z" style="fill: rgb(139, 0, 0);"/>
    <path d="M 4261.52 10223.5 L 4254.26 9344.98 L 4186.52 9196.02 C 4135.72 9079.89 4055.88 8978.9 3845.42 8766.82 C 3603.5 8519.41 3559.95 8461.34 3472.86 8271.99 C 3419.64 8153.34 3364 7989.23 3349.49 7908.44 C 3332.55 7809.98 3322.88 7077.82 3322.88 5797.82 L 3322.88 3836.11 L 3535.77 3770.49 C 4331.68 3525.66 5127.59 3515.49 5911.4 3742.77 C 6037.19 3780.56 6160.58 3821.06 6184.77 3833.62 C 6223.48 3853.86 6225.9 3972.43 6225.9 5805.39 C 6225.9 7971.55 6225.9 7946.31 6063.81 8294.72 C 5988.81 8453.77 5930.76 8532.04 5703.35 8764.3 C 5492.88 8978.9 5413.05 9077.36 5362.25 9193.5 L 5294.51 9344.98 L 5287.25 10223.5 L 5279.99 11099.6 L 4774.38 11099.6 L 4268.77 11099.6 L 4261.52 10223.5 Z M 5064.68 5860.94 C 5325.96 5767.53 5541.26 5515.06 5611.43 5209.56 C 5647.71 5060.61 5647.71 5012.65 5623.52 4868.74 C 5543.69 4411.73 5207.42 4121.43 4762.29 4121.43 C 4605.04 4121.43 4544.57 4131.5 4430.86 4187.05 C 4239.74 4280.49 4087.34 4434.47 3992.99 4633.92 C 3922.84 4782.9 3915.58 4823.29 3915.58 5015.17 C 3915.58 5194.43 3927.67 5252.49 3978.47 5368.62 C 4184.11 5818.02 4619.56 6014.94 5064.68 5860.94 Z" style="fill: rgb(139, 0, 0);"/>
    <path d="M 4440.54 5648.86 C 4375.22 5605.94 4418.77 5532.73 4527.63 5510 C 4624.4 5487.28 4629.23 5479.7 4629.23 5393.87 C 4629.23 5330.75 4612.3 5285.31 4578.43 5252.49 C 4445.38 5128.78 4440.54 4914.19 4568.75 4787.95 C 4621.98 4737.46 4629.23 4707.16 4629.23 4568.3 C 4629.23 4399.17 4677.61 4308.21 4769.55 4308.21 C 4866.31 4308.21 4905.02 4371.34 4914.7 4550.65 C 4924.38 4697.06 4936.47 4737.46 4994.53 4808.15 C 5052.59 4876.31 5064.68 4914.19 5064.68 5015.17 C 5064.68 5118.69 5052.59 5154.03 4992.11 5224.71 C 4938.89 5287.83 4919.53 5338.33 4919.53 5403.97 C 4919.53 5487.28 4924.38 5494.85 4987.27 5494.85 C 5076.79 5494.85 5144.52 5547.88 5132.42 5610.99 C 5125.16 5653.91 5098.56 5658.96 4798.58 5666.54 C 4619.56 5669.07 4457.47 5661.49 4440.54 5648.86 Z" style="fill: rgb(139, 0, 0);"/>
  </g>
  <rect x="465.577" y="157.501" width="0.44" height="0.44" style="fill: rgb(216, 216, 216); stroke: rgb(0, 0, 0); stroke-width: 0.55;"/>
</svg>